<?xml version="1.0" encoding="UTF-8" standalone="no"?>
<!DOCTYPE svg PUBLIC "-//W3C//DTD SVG 1.1//EN" "http://www.w3.org/Graphics/SVG/1.1/DTD/svg11.dtd">
<svg version="1.1" xmlns="http://www.w3.org/2000/svg" xmlns:xlink="http://www.w3.org/1999/xlink" preserveAspectRatio="xMidYMid meet" viewBox="0 0 640 640" width="640" height="640"><defs><path d="M119.87 89.45C113.82 85.63 97.66 75.45 90.96 71.24C90.46 70.92 89.81 71.36 89.94 71.96C94.8 94.44 107.61 153.54 112.11 174.32C112.68 176.96 109.36 178.62 107.6 176.58C97.3 164.57 69.5 132.19 58.29 119.15C57.65 118.4 56.42 118.95 56.56 119.94C57.26 124.85 59.01 137.14 61.82 156.79C36.45 150.16 20.6 146.01 14.26 144.35C13.81 144.24 13.46 144.72 13.7 145.11C17.47 151.04 26.89 165.89 41.97 189.63C21.95 195.29 9.43 198.83 4.42 200.24C3.13 200.6 3.1 202.43 4.38 202.83C15.74 206.43 44.14 215.44 89.6 229.85C75.33 242.19 66.42 249.9 62.86 252.98C62.55 253.25 62.78 253.75 63.17 253.69C80.18 251.24 130.74 243.95 147.97 241.47C148.13 241.44 148.24 241.32 148.24 241.16C148.24 221.86 148.24 173.61 148.24 96.41C148.24 52.58 148.24 25.18 148.24 14.23C148.24 13.13 146.69 12.92 146.39 13.97C142 29.64 130.35 71.18 125.89 87.13C125.16 89.72 122.15 90.88 119.87 89.45Z" id="djt8XbuP5"></path><radialGradient id="gradientc1y1l5shG" gradientUnits="userSpaceOnUse" cx="75.75" cy="12.43" r="0"><stop style="stop-color: #ffffff;stop-opacity: 1" offset="0%"></stop><stop style="stop-color: #010000;stop-opacity: 1" offset="100%"></stop></radialGradient><path d="M119.87 89.45C113.82 85.63 97.66 75.45 90.96 71.24C90.46 70.92 89.81 71.36 89.94 71.96C94.8 94.44 107.61 153.54 112.11 174.32C112.68 176.96 109.36 178.62 107.6 176.58C97.3 164.57 69.5 132.19 58.29 119.15C57.65 118.4 56.42 118.95 56.56 119.94C57.26 124.85 59.01 137.14 61.82 156.79C36.45 150.16 20.6 146.01 14.26 144.35C13.81 144.24 13.46 144.72 13.7 145.11C17.47 151.04 26.89 165.89 41.97 189.63C21.95 195.29 9.43 198.83 4.42 200.24C3.13 200.6 3.1 202.43 4.38 202.83C15.74 206.43 44.14 215.44 89.6 229.85C75.33 242.19 66.42 249.9 62.86 252.98C62.55 253.25 62.78 253.75 63.17 253.69C80.18 251.24 130.74 243.95 147.97 241.47C148.13 241.44 148.24 241.32 148.24 241.16C148.24 221.86 148.24 173.61 148.24 96.41C148.24 52.58 148.24 25.18 148.24 14.23C148.24 13.13 146.69 12.92 146.39 13.97C142 29.64 130.35 71.18 125.89 87.13C125.16 89.72 122.15 90.88 119.87 89.45Z" id="d2deUtHB3X"></path><linearGradient id="gradientm5y1mz26K" gradientUnits="userSpaceOnUse" x1="75.84" y1="13.28" x2="75.84" y2="253.69"><stop style="stop-color: #f0ebeb;stop-opacity: 1" offset="0%"></stop><stop style="stop-color: #010000;stop-opacity: 1" offset="100%"></stop></linearGradient></defs><g><g><g><use xlink:href="#djt8XbuP5" opacity="1" fill="url(#gradientc1y1l5shG)"></use><g><use xlink:href="#djt8XbuP5" opacity="1" fill-opacity="0" stroke="#000000" stroke-width="1" stroke-opacity="0"></use></g></g><g><use xlink:href="#d2deUtHB3X" opacity="1" fill="url(#gradientm5y1mz26K)"></use><g><use xlink:href="#d2deUtHB3X" opacity="1" fill-opacity="0" stroke="#6f1818" stroke-width="8" stroke-opacity="1"></use></g></g></g></g></svg>